<?xml version="1.0" standalone="no"?>
<!DOCTYPE svg PUBLIC "-//W3C//DTD SVG 20010904//EN"
 "http://www.w3.org/TR/2001/REC-SVG-20010904/DTD/svg10.dtd">
<svg version="1.0" xmlns="http://www.w3.org/2000/svg"
 width="858.000000pt" height="291.000000pt" viewBox="0 0 858.000000 291.000000"
 preserveAspectRatio="xMidYMid meet">

<g transform="translate(0.000000,291.000000) scale(0.100000,-0.100000)"
fill="#000000" stroke="none">
<path d="M1150 2620 c-224 -15 -471 -61 -604 -111 -83 -31 -149 -98 -173 -175
-16 -53 -18 -101 -18 -444 0 -451 7 -581 34 -670 25 -81 44 -108 87 -126 49
-21 229 -16 442 12 l42 5 0 439 0 438 26 32 c15 17 40 38 56 46 115 59 623 72
847 21 l51 -12 -65 -109 c-36 -61 -65 -111 -65 -113 0 -9 417 -1 461 8 43 9
62 21 104 63 79 80 295 394 295 430 0 14 -130 73 -255 116 -173 60 -370 104
-605 134 -141 19 -504 27 -660 16z"/>
<path d="M8160 2209 c-58 -10 -135 -23 -172 -29 -62 -11 -68 -14 -68 -36 0
-14 6 -24 14 -24 8 0 28 -12 46 -26 l31 -26 -3 -465 -3 -466 -22 -15 c-13 -8
-23 -23 -23 -33 0 -18 11 -19 210 -19 l210 0 0 30 c0 22 -5 30 -18 30 -11 0
-26 8 -35 18 -15 17 -17 70 -17 550 l0 532 -22 -1 c-13 -1 -70 -10 -128 -20z"/>
<path d="M3543 2182 l-333 -2 0 -30 c0 -23 5 -30 19 -30 11 0 29 -12 40 -26
21 -26 21 -36 21 -494 0 -407 -2 -469 -15 -474 -8 -3 -15 -17 -15 -31 l0 -25
339 0 c186 0 360 4 387 9 191 36 297 135 311 289 5 56 2 69 -26 127 -23 47
-44 73 -75 94 -42 29 -149 71 -183 71 -10 0 9 11 41 25 112 46 166 111 174
209 12 149 -88 251 -274 279 -52 8 -192 11 -411 9z m273 -121 c74 -34 111
-105 101 -197 -12 -113 -66 -154 -214 -162 l-93 -5 0 192 0 191 83 0 c58 0 94
-6 123 -19z m60 -497 c66 -40 87 -79 91 -173 4 -65 1 -83 -19 -121 -31 -60
-85 -89 -177 -97 -80 -7 -114 0 -141 27 -19 19 -20 34 -20 211 l0 192 109 -5
c100 -4 114 -7 157 -34z"/>
<path d="M5550 2055 l-125 -41 -5 -89 c-6 -99 -8 -102 -92 -104 -36 -1 -38 -3
-38 -35 0 -33 0 -34 55 -38 30 -3 58 -8 62 -12 5 -4 10 -130 13 -279 4 -204 8
-278 19 -297 61 -112 214 -145 391 -84 l85 29 3 47 3 47 -73 -5 c-86 -6 -115
6 -141 56 -15 31 -17 62 -15 260 l3 225 103 3 c82 2 102 6 102 17 0 41 49 -11
74 -78 9 -23 62 -168 119 -322 l104 -280 99 0 99 0 70 202 c39 111 72 204 75
207 3 2 37 -90 75 -205 l70 -209 104 2 103 3 21 55 c11 30 75 198 143 372 68
174 124 320 124 323 0 3 -65 5 -145 5 l-145 0 0 -24 c0 -17 9 -27 30 -36 67
-28 67 -59 6 -245 -49 -148 -60 -173 -69 -157 -9 13 -123 332 -131 364 -5 21
-1 32 14 45 11 10 20 25 20 35 0 17 -14 18 -175 18 l-175 0 0 -26 c0 -16 10
-34 26 -47 15 -11 33 -35 40 -53 13 -31 11 -42 -30 -166 -72 -218 -60 -216
-128 -23 -65 188 -70 224 -33 253 14 11 25 29 25 41 0 21 -3 21 -307 23 l-308
3 1 133 c1 90 -2 132 -10 130 -6 0 -67 -20 -136 -43z"/>
<path d="M2625 1921 c-76 -89 -190 -173 -295 -215 -30 -13 -81 -20 -152 -24
l-107 -5 -3 -361 -3 -361 -28 -56 c-50 -103 -231 -252 -418 -344 l-75 -37 -81
41 c-124 62 -244 134 -398 240 l-140 96 -265 -1 c-328 -1 -632 -14 -605 -25
11 -4 96 -38 190 -74 93 -36 175 -71 181 -76 6 -5 14 -27 18 -49 12 -79 95
-141 457 -343 355 -198 612 -327 651 -327 62 0 322 115 560 246 252 140 426
292 500 438 50 99 67 189 74 390 7 197 -4 896 -15 895 -3 0 -24 -22 -46 -48z"/>
<path d="M5065 1845 c-71 -7 -147 -13 -167 -14 -35 -1 -38 -3 -38 -31 0 -19 5
-30 14 -30 8 0 28 -11 43 -24 l28 -24 3 -205 c3 -174 1 -210 -13 -237 -40 -77
-147 -93 -208 -31 l-32 31 -3 285 -3 285 -57 -1 c-31 0 -115 -6 -187 -12 -121
-11 -130 -13 -133 -33 -2 -17 6 -26 35 -40 60 -30 63 -43 63 -291 0 -198 2
-228 20 -276 38 -101 119 -149 254 -149 98 1 174 26 232 76 l39 34 10 -47 10
-46 170 3 c94 2 174 7 178 12 20 18 2 53 -33 64 -58 19 -60 27 -60 389 0 305
-1 327 -17 325 -10 0 -76 -7 -148 -13z"/>
<path d="M7440 1853 c-19 -2 -57 -11 -85 -20 -56 -18 -188 -91 -183 -101 2 -4
14 -29 27 -57 12 -27 25 -45 29 -38 12 18 109 63 161 74 101 21 180 -28 189
-120 l4 -50 -33 -5 c-19 -3 -68 -7 -109 -10 -144 -10 -268 -65 -320 -142 -21
-32 -25 -49 -25 -114 0 -66 4 -82 27 -118 15 -22 49 -54 75 -69 44 -26 56 -28
148 -28 103 0 140 12 222 71 20 14 22 14 39 -15 27 -46 59 -54 182 -49 132 7
142 10 142 54 0 31 -2 34 -23 29 -16 -4 -29 0 -42 15 -18 20 -20 42 -25 264
-5 224 -7 244 -27 282 -29 55 -80 98 -145 122 -56 21 -166 33 -228 25z m140
-502 c0 -99 0 -99 -31 -125 -41 -35 -116 -37 -154 -3 -28 24 -43 85 -31 131
12 47 100 91 189 95 l27 1 0 -99z"/>
<path d="M1224 1676 c-3 -8 -4 -166 -2 -351 l3 -337 48 -44 c53 -48 206 -129
263 -140 29 -5 50 1 119 35 47 23 108 63 137 90 l53 49 3 356 3 356 -311 0
c-258 0 -312 -2 -316 -14z"/>
<path d="M4455 721 c-88 -21 -123 -87 -75 -139 17 -18 104 -52 134 -52 5 0 18
-7 27 -16 14 -12 16 -21 9 -35 -15 -27 -68 -33 -125 -14 -46 16 -49 16 -62 -1
-12 -16 -10 -20 19 -36 42 -22 148 -24 188 -3 54 28 65 80 27 119 -13 12 -55
33 -94 44 -73 22 -91 39 -70 65 19 23 60 28 110 13 44 -13 45 -13 56 10 10 22
8 24 -41 39 -56 16 -59 16 -103 6z"/>
<path d="M6192 715 c-56 -17 -80 -39 -104 -93 -25 -56 -17 -111 24 -157 37
-43 85 -59 162 -53 93 8 106 20 106 95 l0 63 -30 0 c-29 0 -30 -1 -30 -50 0
-48 -1 -49 -35 -59 -79 -21 -145 30 -145 112 0 83 103 129 178 81 18 -12 26
-13 38 -3 22 18 17 36 -18 52 -50 24 -99 28 -146 12z"/>
<path d="M7384 720 c-55 -13 -101 -48 -118 -90 -21 -52 -20 -85 3 -137 26 -55
78 -83 158 -83 139 0 213 112 153 230 -31 61 -122 98 -196 80z m112 -68 c99
-80 16 -230 -107 -193 -49 15 -72 49 -72 108 0 39 5 50 31 75 26 22 42 28 80
28 29 0 55 -7 68 -18z"/>
<path d="M3332 703 c-116 -57 -112 -233 8 -283 41 -17 150 -9 185 14 l27 18
-20 21 c-17 16 -24 18 -35 8 -27 -21 -75 -30 -112 -20 -86 24 -101 155 -24
195 37 19 99 18 128 -2 21 -15 24 -15 43 3 20 20 20 20 -15 42 -43 26 -136 28
-185 4z"/>
<path d="M3657 697 c-54 -33 -77 -72 -77 -133 0 -94 66 -154 171 -154 141 0
221 118 157 231 -43 76 -170 105 -251 56z m171 -52 c59 -50 48 -146 -22 -179
-93 -44 -189 40 -156 139 15 46 44 65 101 65 36 0 55 -6 77 -25z"/>
<path d="M3994 707 c-2 -7 -3 -76 -2 -152 l3 -140 28 -3 27 -3 0 108 1 108 36
-40 c19 -22 60 -70 90 -107 45 -56 59 -68 83 -68 l30 0 0 155 0 155 -30 0 -29
0 -3 -106 -3 -106 -88 106 c-69 82 -94 106 -113 106 -13 0 -27 -6 -30 -13z"/>
<path d="M4679 713 c-1 -5 -1 -57 0 -118 3 -122 11 -144 63 -171 22 -12 49
-15 96 -12 58 4 68 8 93 36 29 32 29 34 29 152 l0 120 -30 0 -30 0 0 -106 c0
-115 -8 -140 -47 -155 -32 -12 -89 5 -103 31 -6 10 -10 66 -10 124 l0 106 -30
0 c-16 0 -31 -3 -31 -7z"/>
<path d="M5050 565 l0 -156 113 3 c104 3 112 4 112 23 0 18 -8 20 -82 23 l-83
3 0 129 0 130 -30 0 -30 0 0 -155z"/>
<path d="M5250 695 c0 -24 3 -25 55 -25 l55 0 0 -130 0 -130 30 0 30 0 0 130
0 130 55 0 c52 0 55 1 55 25 l0 25 -140 0 -140 0 0 -25z"/>
<path d="M5580 564 l0 -155 28 3 27 3 3 153 3 152 -31 0 -30 0 0 -156z"/>
<path d="M5720 565 l0 -155 30 0 30 0 0 100 c0 55 3 100 8 100 4 -1 22 -20 40
-43 123 -155 125 -157 154 -157 l28 0 0 155 0 155 -30 0 -30 0 0 -106 0 -105
-87 105 c-72 85 -93 105 -115 105 l-28 1 0 -155z"/>
<path d="M6644 706 c-41 -18 -80 -71 -89 -118 -13 -69 30 -141 100 -168 43
-17 123 -14 167 6 l38 17 0 64 0 63 -29 0 c-29 0 -30 -2 -33 -52 -3 -48 -5
-52 -33 -60 -41 -11 -100 7 -124 39 -23 28 -28 91 -11 124 24 45 114 63 169
34 26 -13 30 -13 46 5 16 18 15 19 -11 36 -36 24 -147 30 -190 10z"/>
<path d="M6940 564 l0 -155 28 3 c25 3 27 7 30 51 l3 47 39 0 c35 0 41 -4 70
-50 28 -44 36 -50 67 -50 l35 0 -36 51 -37 50 31 29 c24 22 30 36 30 68 0 79
-54 112 -187 112 l-73 0 0 -156z m178 90 c26 -18 30 -65 6 -85 -8 -7 -40 -14
-70 -17 l-54 -4 0 61 0 61 48 0 c27 0 57 -7 70 -16z"/>
<path d="M7660 611 c0 -127 8 -153 52 -182 47 -29 156 -24 192 10 33 31 46 97
39 199 l-6 82 -28 0 -29 0 0 -113 c0 -96 -3 -116 -17 -129 -27 -22 -50 -28
-84 -21 -44 9 -59 50 -59 168 l0 95 -30 0 -30 0 0 -109z"/>
<path d="M8022 568 l3 -153 28 -3 c26 -3 27 -2 27 42 l0 46 55 0 c109 0 172
47 162 122 -10 75 -55 98 -195 98 l-83 0 3 -152z m198 82 c24 -24 25 -49 6
-75 -11 -16 -27 -20 -78 -20 l-63 0 -3 44 c-5 66 0 71 63 71 42 0 60 -5 75
-20z"/>
</g>
</svg>
