<?xml version="1.0" standalone="no"?>
<!DOCTYPE svg PUBLIC "-//W3C//DTD SVG 20010904//EN"
 "http://www.w3.org/TR/2001/REC-SVG-20010904/DTD/svg10.dtd">
<svg version="1.0" xmlns="http://www.w3.org/2000/svg"
 width="106.000000pt" height="94.000000pt" viewBox="0 0 106.000000 94.000000"
 preserveAspectRatio="xMidYMid meet">

<g transform="translate(0.000000,94.000000) scale(0.100000,-0.100000)"
fill="#000000" stroke="none">
<path d="M405 850 c-83 -12 -131 -29 -151 -51 -17 -19 -19 -37 -18 -183 1
-206 1 -206 99 -206 l75 0 0 136 0 135 35 15 c35 14 166 19 223 8 31 -6 31 -7
17 -35 -8 -15 -15 -30 -15 -34 0 -12 127 -4 147 10 22 15 93 117 93 133 0 15
-146 59 -233 71 -87 12 -196 12 -272 1z"/>
<path d="M906 652 c-17 -27 -100 -72 -132 -72 l-32 0 -4 -114 c-3 -105 -5
-117 -27 -140 -28 -29 -112 -86 -128 -86 -5 0 -49 25 -98 55 l-87 55 -127 -1
-126 0 57 -26 c32 -14 58 -31 58 -39 0 -7 15 -24 33 -37 50 -38 274 -157 295
-157 28 0 181 77 235 118 30 23 57 55 73 88 23 48 24 57 22 210 -2 95 -7 154
-12 146z"/>
<path d="M492 473 l3 -106 43 -23 c35 -19 48 -21 70 -13 57 22 62 34 62 146
l0 103 -90 0 -91 0 3 -107z"/>
</g>
</svg>
